<?xml version="1.0" encoding="UTF-8" standalone="no"?>
<svg
   xmlns:dc="http://purl.org/dc/elements/1.1/"
   xmlns:cc="http://creativecommons.org/ns#"
   xmlns:rdf="http://www.w3.org/1999/02/22-rdf-syntax-ns#"
   xmlns:svg="http://www.w3.org/2000/svg"
   xmlns="http://www.w3.org/2000/svg"
   xmlns:sodipodi="http://sodipodi.sourceforge.net/DTD/sodipodi-0.dtd"
   xmlns:inkscape="http://www.inkscape.org/namespaces/inkscape"
   xml:space="preserve"
   version="1.1"
   style="clip-rule:evenodd;fill-rule:evenodd;image-rendering:optimizeQuality;shape-rendering:geometricPrecision;text-rendering:geometricPrecision"
   viewBox="0 0 699.99999 700.00001"
   id="svg13"
   sodipodi:docname="alpha-tauri-logo.svg"
   width="700"
   height="700"
   inkscape:version="0.92.4 (5da689c313, 2019-01-14)"
   inkscape:export-filename="C:\Users\suitedoalex\sites\alpha-tauri-logo-0.png"
   inkscape:export-xdpi="561.73712"
   inkscape:export-ydpi="561.73712"><metadata
     id="metadata17"><rdf:RDF><cc:Work
         rdf:about=""><dc:format>image/svg+xml</dc:format><dc:type
           rdf:resource="http://purl.org/dc/dcmitype/StillImage" /><dc:title></dc:title></cc:Work></rdf:RDF></metadata><sodipodi:namedview
     pagecolor="#ffffff"
     bordercolor="#666666"
     borderopacity="1"
     objecttolerance="10"
     gridtolerance="10"
     guidetolerance="10"
     inkscape:pageopacity="0"
     inkscape:pageshadow="2"
     inkscape:window-width="1600"
     inkscape:window-height="837"
     id="namedview15"
     showgrid="false"
     inkscape:zoom="0.37785326"
     inkscape:cx="707.85258"
     inkscape:cy="293.06689"
     inkscape:window-x="-8"
     inkscape:window-y="-8"
     inkscape:window-maximized="1"
     inkscape:current-layer="svg13" /><defs
     id="defs4"><style
       type="text/css"
       id="style2">.fil0 {fill:#999999;fill-rule:nonzero}</style></defs><g
     id="Layer_x0020_1"
     transform="matrix(0.16428429,0,0,0.16428429,74.345747,156.82385)"
     style="fill:#002841;fill-opacity:1"
     inkscape:export-filename="C:\Users\suitedoalex\sites\alpha-tauri-logo-5.png"
     inkscape:export-xdpi="69.653091"
     inkscape:export-ydpi="69.653091"><metadata
       id="CorelCorpID_0Corel-Layer" /><g
       id="_2573347935984"
       style="fill:#002841;fill-opacity:1"><path
         class="fil0"
         d="m 1941.325,1800.95 c 10.81,11.47 23.97,15.02 38.9,9.7 v 197.46 c 0,0 0,-0.38 -23.11,-0.38 -174.81,-3.84 -336.49,-61.72 -468.89,-157.7 71.99,-67.11 151.6,-172.47 198.69,-275.72 29.91,0.89 67.1,0.42 117.14,-5.42 25.59,-2.98 40.72,-3.16 66.45,-4.15 10.4,-0.42 29,-6.54 26.27,-25.86 -1.65,-11.41 -7.92,-27.29 -12.74,-39.69 -5.67,-14.53 13.07,-22.75 20.3,-11.38 4.26,6.66 13.41,28.34 16.54,35.6 6.01,13.8 22.35,30.22 34.26,38.92 10.19,7.46 21.14,13.25 33.08,17.54 23.91,8.67 44.83,22.44 63.13,40 5.7,5.44 10.75,11.63 15.54,17.91 16.47,21.55 21.07,32.25 -1.75,58.11 -20.52,23.35 -45.59,37.52 -76.2,41.79 -20.53,2.84 -36.38,-3.84 -45.22,-23.69 -1.59,-3.62 -3.56,-7.07 -5.49,-10.54 -3.93,-6.85 -7.66,-13.88 -12.03,-20.46 -6.31,-9.51 -15.13,-14.72 -26.92,-12.92 -18.9,2.9 -37.79,5.8 -56.54,9.42 -3.24,0.62 -10.98,5.78 -8.94,7.39 10.08,17.45 20.99,33.08 33.8,47.38 6.08,6.8 13.34,10.06 22.74,9.64 18.43,-0.72 19.09,0 26.66,16.61 3.58,7.81 7.03,15.68 11.37,23.06 3.64,6.19 8.03,12.13 12.96,17.38 z m 69.02,-162.1 c -16.8,0.61 -33.31,3.8 -50.57,7.87 0.52,15.13 5.9,27.8 11.63,40.23 4.98,10.88 10.12,13.84 21.94,12.33 6.38,-0.86 13.01,-2.76 18.61,-5.84 11.43,-6.34 15.5,-17.53 12.57,-30.38 -1.98,-8.59 -6.19,-15.88 -14.18,-24.21 z m 481.31,-246.52 c -4.63,-14.34 -12.92,-25.89 -24.9,-34.87 -9.99,-7.52 -20.03,-15.08 -30.38,-22.09 -4.29,-2.93 -9.44,-4.63 -14.3,-6.58 -6.39,-2.54 -11.75,-0.49 -15.79,4.72 -3.59,4.67 -6.6,9.85 -10.23,14.56 -4.48,5.88 -10.59,7.49 -17.64,5.4 -6.42,-1.9 -9.76,-6.92 -10.02,-15.33 -0.13,-3.29 -0.16,-6.73 0.63,-9.88 5.56,-21.97 14.68,-42.31 28.69,-60.3 2.01,-2.55 4.52,-4.83 7.09,-6.81 6.77,-5.17 13.2,-4.99 19.78,0.29 23.73,23.93 43.85,42.95 65.44,60.43 23.28,18.86 29.59,45.82 33.61,73.24 -0.67,3.84 -0.87,7.22 -1.97,10.23 -1.76,4.63 -5.29,7.49 -10.47,7.86 -4.77,0.35 -9.57,-0.14 -12.15,-4.76 -2.9,-5.12 -5.56,-10.52 -7.39,-16.11 z m -48.25,128.34 c 9.06,-2.52 15.17,2.5 16.47,11.82 0.49,3.93 0.53,7.87 0.69,9.74 0.04,26.16 -7.35,38.67 -38.4,40.99 -13.02,-0.87 -16.85,-4.22 -18.02,-10.92 -2.94,-17.03 2.11,-31.52 16.02,-41.56 6.7,-4.86 15.14,-7.79 23.24,-10.07 z m 912.4,-1177.04998 -193.46,537.12 h -246.94 V 1175.86 c -0.27,7.91 0.08,15.82 0,23.8 -3.07,440.26 -356.9,797.19 -793.95,807.9 l -40.81,0.55 v -244.92 l 14.95,-6.51 c 12.43,-5.25 23,-12.58 30.01,-24.6 7.72,-13.16 19.27,-18.5 34.74,-18.4 21.27,0.14 25.27,-3.83 29.32,-23.99 3.8,-22.1 6.66,-40.38 10.43,-58.44 3.61,-17 1.71,-32.94 -7.61,-47.58 -16.65,-26.15 -33.19,-52.4 -50.65,-78.02 -11.98,-17.54 -18.28,-18.44 -34.68,-3.69 l 15.06,27.87 c 11.94,16.61 24.04,33.15 35.56,50.04 3.64,5.36 7.02,11.6 8.05,17.84 4.26,26.15 0.39,51.32 -12.28,74.75 -1.6,2.89 -5.63,4.45 -9.27,7.15 -2.1,-4.26 -4.23,-6.99 -4.79,-10.07 -1.04,-5.82 -1.63,-11.8 -1.6,-17.73 0,-21.98 -7,-41.03 -20.88,-58.33 -16.93,-21.11 -32.71,-43.15 -48.59,-65.06 -15.44,-21.21 -13.47,-43.61 5.32,-62.28 7.94,-7.87 16.43,-15.29 24.76,-22.85 11.43,-10.43 19.99,-22.89 25.2,-37.37 4.04,-11.15 7.84,-22.48 10.39,-34.05 6.37,-28.48 8.06,-57.46 7.71,-86.61 l 0.2,-21.79 c 0.07,-5.52 1.97,-10.31 5.84,-14.26 6.21,-6.32 15.79,-5.83 20.42,1.63 2.75,4.37 4.96,9.39 6.1,14.46 5.62,25.25 8.81,50.73 5.92,76.61 -3.53,32.28 -10.15,63.85 -19.96,94.79 -1.91,6.01 -5.25,11.87 -3.81,19.82 5.03,0 9.59,0.44 14.05,-0.07 9.15,-1.11 18.24,-2.97 27.4,-4.04 31.27,-3.5 58.38,-15.28 80.35,-38.4 10.01,-10.5 21.03,-20.04 31.6,-30.04 4.14,-3.91 8.77,-5.82 14.4,-3.43 5.14,2.21 8.26,7.95 6.62,14.99 -1.79,7.63 -4.03,15.4 -7.45,22.44 -5.77,11.85 -12.02,23.57 -19.24,34.6 -15.25,23.26 -28.1,47.67 -37.87,73.73 -6.01,16.07 -12.86,31.82 -18.44,48.01 -5.64,16.29 -1.67,20.85 14.91,18.78 13.05,-1.62 16.64,1.18 17.53,14.2 0.33,5.24 -0.16,10.56 0,15.82 0.14,5.93 -0.09,11.98 0.95,17.79 4.14,23.61 30.04,38.78 52.42,30.38 10.46,-3.95 20.47,-9.2 30.31,-14.44 7.57,-4.04 14.61,-9.01 21.86,-13.61 20.42,-12.95 42.59,-21.03 66.72,-23.02 9.84,-0.84 19.8,-0.8 29.69,-0.49 17.07,0.58 30.68,-5.74 41.7,-18.72 6.01,-6.98 12.18,-13.98 19.09,-20.06 11.83,-10.54 20.54,-11.23 34.08,-2.83 10.64,6.59 20.8,14.05 31.05,21.23 16.29,11.4 33.18,21.66 51.53,29.36 16.63,6.91 33.8,11.25 52.03,9.39 2.31,-0.27 4.49,-1.49 8.63,-2.94 -4.3,-3.94 -6.86,-6.72 -9.81,-9.01 -8.38,-6.42 -17.46,-12.09 -25.26,-19.12 -11.21,-10.16 -22.28,-20.65 -32.09,-32.13 -12.43,-14.53 -23.69,-30.05 -35.25,-45.33 -6.73,-8.92 -13.65,-17.86 -19.38,-27.45 -2.9,-4.78 -4.35,-10.99 -4.77,-16.69 -0.59,-7.95 7.22,-13.5 14.84,-10.61 5.4,2.05 10.79,5.21 15.06,9.09 15.55,14.26 30.8,28.93 45.89,43.69 9.43,9.25 18.11,19.27 27.64,28.35 11.07,10.55 23.2,19.68 38.06,24.34 16.09,4.98 24.87,4.8 44.76,-2.8 2.2,-2.75 -10.19,-8.41 -10.19,-8.41 -42.01,-21.36 -73.15,-49.92 -100.46,-88.29 -18.86,-26.51 -34.02,-54.99 -47.38,-84.49 -15.58,-34.3 -26.91,-70.2 -39.58,-105.6 -15.33,-42.85 -30.8,-85.68 -46.96,-128.22 -10.64,-28.02 -27.42,-52.54 -46.28,-75.7 -24.87,-30.61 -55.52,-54.53 -87.54,-76.88 -32.54,-22.74998 -67.52,-41.26998 -102.16,-60.45998 -57.69,-32.02 -118.03,-59.13 -173.48,-95.18 -9.57,-5.6 -14.02,-7.83 -18.51,-9.7 -2.08,-0.83 -9.63,-3.76 -17.41,-5.73 l -9.52,-1.76 v -493.44 z M 2095.145,1010.94 c -4.04,-3.26 -7.88,-7.06 -10.88,-11.29998 -4.6,-6.42 -4.6,-13.68 -0.73,-20.52 3.88,-6.8 10.13,-10.28 17.96,-10.15 3.27,0.04 6.69,0.38 9.7,1.55 6.67,2.63 13.64,5.06 19.65,8.94 29.32,18.83 52.87,43.34998 69.97,73.72998 7.56,13.38 11.6,28.29 11.7,40.04 -0.79,5.1 0,11.6 -6.8,14.49 -4.87,2.05 -10.04,-0.03 -14.41,-7.34 -18.4,-30.73 -45.22,-52.78 -73.96,-72.97 -7.53,-5.29 -15.02,-10.68 -22.2,-16.47 z m -691.22,769.17 c -13.22,12.52 -26.84,24.6 -40.88,36.24 -14.06,11.71 -28.56,22.93 -43.42,33.68 -137.09,99.37 -305.48,158.08 -487.36,158.08 -458.92,0 -832.25000021,-373.37 -832.25000021,-832.25 0,-458.91998 373.33000021,-832.23998 832.25000021,-832.23998 181.88,0 350.27,58.67 487.36,158.05 -127.04,123.67 -219.45,282.8 -260.85,461.25 -56.82,-60.38 -137.31,-98.17 -226.51,-98.17 -171.57,0 -311.11,139.54998 -311.11,311.10998 0,171.53 139.54,311.07 311.11,311.07 89.2,0 169.69,-37.78 226.51,-98.13 16.7,-17.79 31.34,-37.54 43.58,-58.86 26.04,-45.44 40.98,-98.03 40.98,-154.08 0,-237.72998 100.25,-452.44998 260.59,-604.24998 13.23,-12.55 26.84,-24.63 40.89,-36.27 14.05,-11.67 28.59,-22.89 43.41,-33.67 137.08,-99.38 304.55,-158.05 492.12,-158.05 l -0.12,509.22 c 0,0 -3.71,3.76 -10.44,6.62 -2.93,1.22 -17.27,5.92 -28.56,7.19 -75.41,8.32 -142.76,43.76 -192.14,96.27 -16.71,17.8 -31.35,37.51998 -43.58,58.81998 -26.01,45.48 -40.99,98.07 -40.99,154.12 0,237.69 -100.25,452.45 -260.59,604.25 z"
         id="path7"
         inkscape:connector-curvature="0"
         style="fill:#002841;fill-opacity:1;fill-rule:nonzero" /></g></g><g
     id="Layer_x0020_1-2"
     transform="matrix(0.16428429,0,0,0.16428429,859.70712,156.82385)"
     style="clip-rule:evenodd;fill:#002841;fill-opacity:1;fill-rule:evenodd;image-rendering:optimizeQuality;shape-rendering:geometricPrecision;text-rendering:geometricPrecision"
     inkscape:export-filename="C:\Users\suitedoalex\sites\alpha-tauri-logo-4.png"
     inkscape:export-xdpi="69.652878"
     inkscape:export-ydpi="69.652878"><metadata
       id="CorelCorpID_0Corel-Layer-1" /><g
       id="_2573347935984-0"
       style="fill:#002841;fill-opacity:1"><path
         class="fil0"
         d="m 1941.33,1457.34 c 10.81,11.47 23.97,15.02 38.9,9.7 v 197.46 c 0,0 0,-0.38 -23.11,-0.38 -174.81,-3.84 -336.49,-61.72 -468.89,-157.7 71.99,-67.11 151.6,-172.47 198.69,-275.72 29.91,0.89 67.1,0.42 117.14,-5.42 25.59,-2.98 40.72,-3.16 66.45,-4.15 10.4,-0.42 29,-6.54 26.27,-25.86 -1.65,-11.41 -7.92,-27.29 -12.74,-39.69 -5.67,-14.53 13.07,-22.75 20.3,-11.38 4.26,6.66 13.41,28.34 16.54,35.6 6.01,13.8 22.35,30.22 34.26,38.92 10.19,7.46 21.14,13.25 33.08,17.54 23.91,8.67 44.83,22.44 63.13,40 5.7,5.44 10.75,11.63 15.54,17.91 16.47,21.55 21.07,32.25 -1.75,58.11 -20.52,23.35 -45.59,37.52 -76.2,41.79 -20.53,2.84 -36.38,-3.84 -45.22,-23.69 -1.59,-3.62 -3.56,-7.07 -5.49,-10.54 -3.93,-6.85 -7.66,-13.88 -12.03,-20.46 -6.31,-9.51 -15.13,-14.72 -26.92,-12.92 -18.9,2.9 -37.79,5.8 -56.54,9.42 -3.24,0.62 -10.98,5.78 -8.94,7.39 10.08,17.45 20.99,33.08 33.8,47.38 6.08,6.8 13.34,10.06 22.74,9.64 18.43,-0.72 19.09,0 26.66,16.61 3.58,7.81 7.03,15.68 11.37,23.06 3.64,6.19 8.03,12.13 12.96,17.38 z m 69.02,-162.1 c -16.8,0.61 -33.31,3.8 -50.57,7.87 0.52,15.13 5.9,27.8 11.63,40.23 4.98,10.88 10.12,13.84 21.94,12.33 6.38,-0.86 13.01,-2.76 18.61,-5.84 11.43,-6.34 15.5,-17.53 12.57,-30.38 -1.98,-8.59 -6.19,-15.88 -14.18,-24.21 z m 481.31,-246.52 c -4.63,-14.34 -12.92,-25.89 -24.9,-34.87 -9.99,-7.52 -20.03,-15.08 -30.38,-22.09 -4.29,-2.93 -9.44,-4.63 -14.3,-6.58 -6.39,-2.54 -11.75,-0.49 -15.79,4.72 -3.59,4.67 -6.6,9.85 -10.23,14.56 -4.48,5.88 -10.59,7.49 -17.64,5.4 -6.42,-1.9 -9.76,-6.92 -10.02,-15.33 -0.13,-3.29 -0.16,-6.73 0.63,-9.88 5.56,-21.97 14.68,-42.31 28.69,-60.3 2.01,-2.55 4.52,-4.83 7.09,-6.81 6.77,-5.17 13.2,-4.99 19.78,0.29 23.73,23.93 43.85,42.95 65.44,60.43 23.28,18.86 29.59,45.82 33.61,73.24 -0.67,3.84 -0.87,7.22 -1.97,10.23 -1.76,4.63 -5.29,7.49 -10.47,7.86 -4.77,0.35 -9.57,-0.14 -12.15,-4.76 -2.9,-5.12 -5.56,-10.52 -7.39,-16.11 z m -48.25,128.34 c 9.06,-2.52 15.17,2.5 16.47,11.82 0.49,3.93 0.53,7.87 0.69,9.74 0.04,26.16 -7.35,38.67 -38.4,40.99 -13.02,-0.87 -16.85,-4.22 -18.02,-10.92 -2.94,-17.03 2.11,-31.52 16.02,-41.56 6.7,-4.86 15.14,-7.79 23.24,-10.07 z M 3355.81,0.01 3162.35,537.13 h -246.94 v 295.12 c -0.27,7.91 0.08,15.82 0,23.8 -3.07,440.26 -356.9,797.19 -793.95,807.9 l -40.81,0.55 v -244.92 l 14.95,-6.51 c 12.43,-5.25 23,-12.58 30.01,-24.6 7.72,-13.16 19.27,-18.5 34.74,-18.4 21.27,0.14 25.27,-3.83 29.32,-23.99 3.8,-22.1 6.66,-40.38 10.43,-58.44 3.61,-17 1.71,-32.94 -7.61,-47.58 -16.65,-26.15 -33.19,-52.4 -50.65,-78.02 -11.98,-17.54 -18.28,-18.44 -34.68,-3.69 l 15.06,27.87 c 11.94,16.61 24.04,33.15 35.56,50.04 3.64,5.36 7.02,11.6 8.05,17.84 4.26,26.15 0.39,51.32 -12.28,74.75 -1.6,2.89 -5.63,4.45 -9.27,7.15 -2.1,-4.26 -4.23,-6.99 -4.79,-10.07 -1.04,-5.82 -1.63,-11.8 -1.6,-17.73 0,-21.98 -7,-41.03 -20.88,-58.33 -16.93,-21.11 -32.71,-43.15 -48.59,-65.06 -15.44,-21.21 -13.47,-43.61 5.32,-62.28 7.94,-7.87 16.43,-15.29 24.76,-22.85 11.43,-10.43 19.99,-22.89 25.2,-37.37 4.04,-11.15 7.84,-22.48 10.39,-34.05 6.37,-28.48 8.06,-57.46 7.71,-86.61 l 0.2,-21.79 c 0.07,-5.52 1.97,-10.31 5.84,-14.26 6.21,-6.32 15.79,-5.83 20.42,1.63 2.75,4.37 4.96,9.39 6.1,14.46 5.62,25.25 8.81,50.73 5.92,76.61 -3.53,32.28 -10.15,63.85 -19.96,94.79 -1.91,6.01 -5.25,11.87 -3.81,19.82 5.03,0 9.59,0.44 14.05,-0.07 9.15,-1.11 18.24,-2.97 27.4,-4.04 31.27,-3.5 58.38,-15.28 80.35,-38.4 10.01,-10.5 21.03,-20.04 31.6,-30.04 4.14,-3.91 8.77,-5.82 14.4,-3.43 5.14,2.21 8.26,7.95 6.62,14.99 -1.79,7.63 -4.03,15.4 -7.45,22.44 -5.77,11.85 -12.02,23.57 -19.24,34.6 -15.25,23.26 -28.1,47.67 -37.87,73.73 -6.01,16.07 -12.86,31.82 -18.44,48.01 -5.64,16.29 -1.67,20.85 14.91,18.78 13.05,-1.62 16.64,1.18 17.53,14.2 0.33,5.24 -0.16,10.56 0,15.82 0.14,5.93 -0.09,11.98 0.95,17.79 4.14,23.61 30.04,38.78 52.42,30.38 10.46,-3.95 20.47,-9.2 30.31,-14.44 7.57,-4.04 14.61,-9.01 21.86,-13.61 20.42,-12.95 42.59,-21.03 66.72,-23.02 9.84,-0.84 19.8,-0.8 29.69,-0.49 17.07,0.58 30.68,-5.74 41.7,-18.72 6.01,-6.98 12.18,-13.98 19.09,-20.06 11.83,-10.54 20.54,-11.23 34.08,-2.83 10.64,6.59 20.8,14.05 31.05,21.23 16.29,11.4 33.18,21.66 51.53,29.36 16.63,6.91 33.8,11.25 52.03,9.39 2.31,-0.27 4.49,-1.49 8.63,-2.94 -4.3,-3.94 -6.86,-6.72 -9.81,-9.01 -8.38,-6.42 -17.46,-12.09 -25.26,-19.12 -11.21,-10.16 -22.28,-20.65 -32.09,-32.13 -12.43,-14.53 -23.69,-30.05 -35.25,-45.33 -6.73,-8.92 -13.65,-17.86 -19.38,-27.45 -2.9,-4.78 -4.35,-10.99 -4.77,-16.69 -0.59,-7.95 7.22,-13.5 14.84,-10.61 5.4,2.05 10.79,5.21 15.06,9.09 15.55,14.26 30.8,28.93 45.89,43.69 9.43,9.25 18.11,19.27 27.64,28.35 11.07,10.55 23.2,19.68 38.06,24.34 16.09,4.98 24.87,4.8 44.76,-2.8 2.2,-2.75 -10.19,-8.41 -10.19,-8.41 -42.01,-21.36 -73.15,-49.92 -100.46,-88.29 -18.86,-26.51 -34.02,-54.99 -47.38,-84.49 -15.58,-34.3 -26.91,-70.2 -39.58,-105.6 -15.33,-42.85 -30.8,-85.68 -46.96,-128.22 -10.64,-28.02 -27.42,-52.54 -46.28,-75.7 -24.87,-30.61 -55.52,-54.53 -87.54,-76.88 -32.54,-22.75 -67.52,-41.27 -102.16,-60.46 -57.69,-32.02 -118.03,-59.13 -173.48,-95.18 -9.57,-5.6 -14.02,-7.83 -18.51,-9.7 -2.08,-0.83 -9.63,-3.76 -17.41,-5.73 l -9.52,-1.76 V 0.01 Z M 2095.15,667.33 c -4.04,-3.26 -7.88,-7.06 -10.88,-11.3 -4.6,-6.42 -4.6,-13.68 -0.73,-20.52 3.88,-6.8 10.13,-10.28 17.96,-10.15 3.27,0.04 6.69,0.38 9.7,1.55 6.67,2.63 13.64,5.06 19.65,8.94 29.32,18.83 52.87,43.35 69.97,73.73 7.56,13.38 11.6,28.29 11.7,40.04 -0.79,5.1 0,11.6 -6.8,14.49 -4.87,2.05 -10.04,-0.03 -14.41,-7.34 -18.4,-30.73 -45.22,-52.78 -73.96,-72.97 -7.53,-5.29 -15.02,-10.68 -22.2,-16.47 z m -691.22,769.17 c -13.22,12.52 -26.84,24.6 -40.88,36.24 -14.06,11.71 -28.56,22.93 -43.42,33.68 -137.09,99.37 -305.48,158.08 -487.36,158.08 C 373.35,1664.5 0.02,1291.13 0.02,832.25 0.02,373.33 373.35,0.01 832.27,0.01 c 181.88,0 350.27,58.67 487.36,158.05 -127.04,123.67 -219.45,282.8 -260.85,461.25 -56.82,-60.38 -137.31,-98.17 -226.51,-98.17 -171.57,0 -311.11,139.55 -311.11,311.11 0,171.53 139.54,311.07 311.11,311.07 89.2,0 169.69,-37.78 226.51,-98.13 16.7,-17.79 31.34,-37.54 43.58,-58.86 26.04,-45.44 40.98,-98.03 40.98,-154.08 0,-237.73 100.25,-452.45 260.59,-604.25 13.23,-12.55 26.84,-24.63 40.89,-36.27 14.05,-11.67 28.59,-22.89 43.41,-33.67 C 1625.31,58.68 1792.78,0.01 1980.35,0.01 l -0.12,509.22 c 0,0 -3.71,3.76 -10.44,6.62 -2.93,1.22 -17.27,5.92 -28.56,7.19 -75.41,8.32 -142.76,43.76 -192.14,96.27 -16.71,17.8 -31.35,37.52 -43.58,58.82 -26.01,45.48 -40.99,98.07 -40.99,154.12 0,237.69 -100.25,452.45 -260.59,604.25 z"
         id="path7-9"
         inkscape:connector-curvature="0"
         style="fill:#002841;fill-opacity:1;fill-rule:nonzero" /><path
         class="fil0"
         d="m 1751.8,2008.62 -32.25,89.44 h -82.51 v 249.2 h -89.7 l 0.12,-249.2 h -82.56 l -32.12,-89.44 z m -349.82,230.97 h -146.52 l -38.71,107.71 h -26.35 l 121.68,-338.68 h 16.63 16.6 l 121.72,338.68 h -26.34 z m -73.27,-203.85 -64.55,179.59 h 129.07 z m 1220.43,170.17 h 65.1 c 14.94,0 27.68,-5.25 38.26,-15.79 10.52,-10.53 15.78,-23.2 15.78,-38.04 0,-14.89 -5.26,-27.67 -15.78,-38.2 -10.58,-10.53 -23.32,-15.82 -38.26,-15.82 h -65.1 z m 166.58,-155.26 c 28,28.01 41.99,61.82 41.99,101.43 0,45.19 -17.53,82.15 -52.59,110.92 l 50,84.26 h -104.08 l -30.64,-51.94 -6.16,0.28 h -65.1 v 51.66 h -89.44 v -338.64 h 154.54 c 39.67,0.04 73.47,14.04 101.48,42.03 z m -1943.97,9.22 c -17.72,-17.71 -39.31,-26.65 -64.44,-26.65 H 588.63 v 182.22 h 118.68 c 25.08,0 46.72,-9.01 64.44,-26.89 17.72,-17.72 26.66,-39.27 26.66,-64.21 0,-25.14 -8.94,-46.75 -26.66,-64.47 z m 17,-16.98 c 22.51,22.31 33.91,49.76 33.91,81.45 0,31.51 -11.44,58.96 -33.88,81.44 -22.35,22.47 -49.8,33.91 -81.47,33.91 H 588.63 v 107.61 h -24.29 v -338.53 h 142.97 c 31.7,0 59.16,11.64 81.44,34.12 z m 1095.18,80.27 -34.71,103.3 h 69.1 z m -44.66,-114.54 h 89.42 l 121.99,338.64 h -90.06 l -13.91,-38.7 h -125.56 l -14.13,38.7 h -89.79 z M 352.83,2323.01 h 169.66 v 24.29 H 328.55 v -338.75 h 24.28 z m 762.87,-314.46 h 24.24 V 2347.3 H 1115.7 V 2239.51 H 896.28 v 107.79 h -24.29 v -338.75 h 24.29 v 206.66 h 219.42 z m 1707.56,0.07 h 89.44 v 338.61 h -89.44 z m -438.46,0 v 187.21 c 0,86.08 -69.81,155.89 -155.9,155.89 -86.08,0 -155.9,-69.81 -155.9,-155.89 v -187.21 h 89.43 v 187.21 c 0,36.68 29.74,66.45 66.47,66.45 36.73,0 66.45,-29.77 66.45,-66.45 v -187.21 z m -2246.46,27.12 -64.53,179.59 h 129.05 z m 73.24,203.85 H 65.06 L 26.35,2347.3 H 0.01 l 121.71,-338.68 h 16.62 16.61 l 121.69,338.68 h -26.35 z"
         id="path9-9"
         inkscape:connector-curvature="0"
         style="fill:#002841;fill-opacity:1;fill-rule:nonzero" /></g></g></svg>