<?xml version="1.0" encoding="UTF-8" standalone="no"?>
<svg
   xmlns:dc="http://purl.org/dc/elements/1.1/"
   xmlns:cc="http://creativecommons.org/ns#"
   xmlns:rdf="http://www.w3.org/1999/02/22-rdf-syntax-ns#"
   xmlns:svg="http://www.w3.org/2000/svg"
   xmlns="http://www.w3.org/2000/svg"
   xmlns:sodipodi="http://sodipodi.sourceforge.net/DTD/sodipodi-0.dtd"
   xmlns:inkscape="http://www.inkscape.org/namespaces/inkscape"
   version="1.1"
   id="Layer_1"
   x="0px"
   y="0px"
   viewBox="0 0 699.99999 699.99999"
   xml:space="preserve"
   sodipodi:docname="mclaren-logo.svg"
   width="700"
   height="700"
   inkscape:export-filename="C:\Users\suitedoalex\Desktop\temp\mclaren-logo-0.png"
   inkscape:export-xdpi="561.73712"
   inkscape:export-ydpi="561.73712"
   inkscape:version="0.92.4 (5da689c313, 2019-01-14)"><metadata
   id="metadata13"><rdf:RDF><cc:Work
       rdf:about=""><dc:format>image/svg+xml</dc:format><dc:type
         rdf:resource="http://purl.org/dc/dcmitype/StillImage" /><dc:title></dc:title></cc:Work></rdf:RDF></metadata><defs
   id="defs11" /><sodipodi:namedview
   pagecolor="#ffffff"
   bordercolor="#666666"
   borderopacity="1"
   objecttolerance="10"
   gridtolerance="10"
   guidetolerance="10"
   inkscape:pageopacity="0"
   inkscape:pageshadow="2"
   inkscape:window-width="1600"
   inkscape:window-height="837"
   id="namedview9"
   showgrid="false"
   inkscape:zoom="0.31628735"
   inkscape:cx="887.99955"
   inkscape:cy="131.58719"
   inkscape:window-x="-8"
   inkscape:window-y="-8"
   inkscape:window-maximized="1"
   inkscape:current-layer="Layer_1" />
<style
   type="text/css"
   id="style2">
	.st0{fill:#000000;}
</style>
<path
   class="st0"
   d="m 577.17482,391.93194 c 0,0 0,-16.29308 0,-22.82686 0,-14.22543 -7.03001,-18.19532 -27.29298,-18.19532 -0.16541,0 -39.86429,0 -39.86429,0 v 41.02218 h 25.14262 v -27.78921 c 0,0 4.96236,0 6.69919,0 7.44354,0 10.09014,4.38341 10.09014,9.09765 0,2.48118 0,18.69156 0,18.69156 z M 505.2206,364.47355 c 0,-0.49624 0,-1.07519 0,-1.65412 0,-6.7819 -3.88718,-11.90967 -21.42085,-11.90967 -4.71424,0 -20.34567,0 -25.80427,0 -16.29308,0 -23.07497,5.54131 -23.07497,17.69909 0,2.31577 0,5.04506 0,7.19541 0,10.25555 6.78189,16.12768 21.17273,16.12768 h 45.98453 v -12.07507 h -37.13499 c -3.63907,0 -4.96235,-1.15789 -4.96235,-3.88719 v -0.41353 c 2.8947,0 21.91708,0 28.86439,0 10.25553,0.0827 16.37578,-3.39094 16.37578,-11.0826 z m -23.81932,0.99246 c 0,1.81954 -0.74436,2.89472 -3.63906,2.89472 h -17.69909 v -1.57142 c 0,-2.31576 0.90977,-3.88718 3.80447,-3.88718 2.81201,0 13.7292,0 13.7292,0 2.23306,-0.0827 3.80448,0.74437 3.80448,2.56388 z m -64.8415,-2.23304 h 15.71414 v -12.4059 c 0,0 -19.68403,0 -32.25535,0 -5.21047,0 -8.43601,2.812 -8.43601,7.27812 0,2.15035 0,33.74404 0,33.74404 h 25.05992 v -28.61626 z m -30.43581,12.73671 c 0,-2.31577 0,-6.78189 0,-8.93225 0,-10.25555 -6.69918,-16.12767 -21.17273,-16.12767 h -44.99207 v 11.90968 h 36.14252 c 3.63907,0 4.96236,1.15787 4.96236,3.96987 v 0.41354 c -2.89471,0 -21.91709,0 -28.86439,0 -12.15778,0 -16.21038,5.21047 -16.21038,11.82695 0,0.49623 0,0.74435 0,1.3233 0,2.97741 0.90977,5.54129 2.6466,7.19541 3.47364,3.39096 10.33825,4.38343 19.51862,4.38343 4.71424,0 19.51861,0 24.9772,0 16.21038,-0.0827 22.99227,-3.88719 22.99227,-15.96226 z m -25.14262,0 c 0,2.31577 -0.90977,3.88719 -3.80448,3.88719 -2.812,0 -13.56378,0 -13.56378,0 -2.31577,0 -3.72177,-0.66165 -3.72177,-2.48118 0,-1.81953 0.82706,-2.97743 3.72177,-2.97743 h 17.36826 z m -48.71383,15.96226 v -12.40591 h -19.35321 v -35.23275 h -25.14262 v 47.63866 h 44.49583 m -90.64578,0 c 6.20296,0 40.52594,0 40.52594,0 v -12.40591 c 0,0 -30.27039,0 -33.1651,0 -3.22553,0 -6.53377,-1.81953 -6.53377,-7.85706 v -0.82706 c 0,-5.3759 2.7293,-7.52625 6.28566,-7.52625 1.5714,0 24.8945,0 33.41321,0 v -12.4059 c -11.90966,0 -41.27029,0 -41.35299,0 -16.78933,0 -23.65392,7.36084 -23.65392,18.60886 v 3.80447 c 0,13.23296 7.36084,18.60885 24.48097,18.60885 z m -54.75137,0 H 192.013 v -47.63866 c 0,0 -7.19542,0 -14.72166,0 -6.03754,0 -10.33825,2.56389 -14.47356,6.12024 -4.63153,4.0526 -21.25543,18.44345 -21.25543,18.44345 v -24.56369 c 0,0 -6.78189,0 -14.80438,0 -8.3533,0 -12.57131,2.89471 -17.28555,6.53378 -3.14284,2.56388 -52.51831,41.10488 -52.51831,41.10488 h 29.93958 l 29.52603,-24.31557 v 24.31557 h 23.98475 l 26.4659,-24.15016 z"
   id="path4"
   inkscape:connector-curvature="0"
   style="fill:#000000;stroke-width:0.82705992"
   inkscape:export-filename="C:\Users\suitedoalex\Desktop\temp\mclaren-logo-5.png"
   inkscape:export-xdpi="114.65781"
   inkscape:export-ydpi="114.65781" />
<path
   class="st0"
   d="m 623.821,308.06806 c -12.90213,0 -31.09746,3.88717 -50.86419,11.0826 -16.45849,6.03754 -32.75156,13.64649 -50.36795,24.8118 10.33826,-4.218 30.60122,-8.93224 47.39053,-8.93224 22.66145,0 38.78912,8.68413 14.96979,39.03722 70.21739,-45.98453 68.23245,-65.99938 38.87182,-65.99938"
   id="path6"
   inkscape:connector-curvature="0"
   style="fill:#ee2629;stroke-width:0.82705992;fill-opacity:1"
   inkscape:export-filename="C:\Users\suitedoalex\Desktop\temp\mclaren-logo-5.png"
   inkscape:export-xdpi="114.65781"
   inkscape:export-ydpi="114.65781" />
<path
   class="st0"
   d="m 577.17482,877.88421 c 0,0 0,-16.293 0,-22.82681 0,-14.22543 -7.03001,-18.19532 -27.29298,-18.19532 -0.16541,0 -39.86429,0 -39.86429,0 v 41.02213 h 25.14262 v -27.78916 c 0,0 4.96236,0 6.69919,0 7.44354,0 10.09014,4.38341 10.09014,9.09766 0,2.4812 0,18.6915 0,18.6915 z M 505.2206,850.42587 c 0,-0.49624 0,-1.07519 0,-1.65412 0,-6.7819 -3.88718,-11.90967 -21.42085,-11.90967 -4.71424,0 -20.34567,0 -25.80427,0 -16.29308,0 -23.07497,5.54131 -23.07497,17.69909 0,2.31577 0,5.04504 0,7.19544 0,10.2555 6.78189,16.1276 21.17273,16.1276 h 45.98453 v -12.075 h -37.13499 c -3.63907,0 -4.96235,-1.1579 -4.96235,-3.8872 v -0.4135 c 2.8947,0 21.91708,0 28.86439,0 10.25553,0.083 16.37578,-3.391 16.37578,-11.08264 z m -23.81932,0.99246 c 0,1.81954 -0.74436,2.89472 -3.63906,2.89472 h -17.69909 v -1.57142 c 0,-2.31576 0.90977,-3.88718 3.80447,-3.88718 2.81201,0 13.7292,0 13.7292,0 2.23306,-0.0827 3.80448,0.74437 3.80448,2.56388 z m -64.8415,-2.23304 h 15.71414 v -12.4059 c 0,0 -19.68403,0 -32.25535,0 -5.21047,0 -8.43601,2.812 -8.43601,7.27812 0,2.15035 0,33.744 0,33.744 h 25.05992 v -28.61622 z m -30.43581,12.73672 c 0,-2.3158 0,-6.7819 0,-8.93226 0,-10.25555 -6.69918,-16.12767 -21.17273,-16.12767 h -44.99207 v 11.90968 h 36.14252 c 3.63907,0 4.96236,1.15787 4.96236,3.96987 v 0.41354 c -2.89471,0 -21.91709,0 -28.86439,0 -12.15778,0 -16.21038,5.21044 -16.21038,11.82694 0,0.4962 0,0.7444 0,1.3233 0,2.9774 0.90977,5.5413 2.6466,7.1954 3.47364,3.391 10.33825,4.3834 19.51862,4.3834 4.71424,0 19.51861,0 24.9772,0 16.21038,-0.083 22.99227,-3.8871 22.99227,-15.9622 z m -25.14262,0 c 0,2.3158 -0.90977,3.8872 -3.80448,3.8872 -2.812,0 -13.56378,0 -13.56378,0 -2.31577,0 -3.72177,-0.6617 -3.72177,-2.4812 0,-1.8195 0.82706,-2.9774 3.72177,-2.9774 h 17.36826 z m -48.71383,15.9622 v -12.4059 H 292.91431 V 830.2456 h -25.14262 v 47.63861 h 44.49583 m -90.64578,0 c 6.20296,0 40.52594,0 40.52594,0 v -12.4059 c 0,0 -30.27039,0 -33.1651,0 -3.22553,0 -6.53377,-1.8195 -6.53377,-7.85702 v -0.82706 c 0,-5.3759 2.7293,-7.52625 6.28566,-7.52625 1.5714,0 24.8945,0 33.41321,0 v -12.4059 c -11.90966,0 -41.27029,0 -41.35299,0 -16.78933,0 -23.65392,7.36084 -23.65392,18.60886 v 3.80447 c 0,13.233 7.36084,18.6088 24.48097,18.6088 z m -54.75137,0 H 192.013 V 830.2456 c 0,0 -7.19542,0 -14.72166,0 -6.03754,0 -10.33825,2.56389 -14.47356,6.12024 -4.63153,4.0526 -21.25543,18.44345 -21.25543,18.44345 V 830.2456 c 0,0 -6.78189,0 -14.80438,0 -8.3533,0 -12.57131,2.89471 -17.28555,6.53378 -3.14284,2.56388 -52.518312,41.10483 -52.518312,41.10483 h 29.93958 l 29.526032,-24.31552 v 24.31552 h 23.98475 l 26.4659,-24.15011 z"
   id="path4-3"
   inkscape:connector-curvature="0"
   style="fill:#000000;stroke-width:0.82705992"
   inkscape:export-filename="C:\Users\suitedoalex\Desktop\temp\mclaren-logo-4.png"
   inkscape:export-xdpi="114.65781"
   inkscape:export-ydpi="114.65781" /><path
   class="st0"
   d="m 623.821,794.02038 c -12.90213,0 -31.09746,3.88717 -50.86419,11.0826 -16.45849,6.03754 -32.75156,13.64649 -50.36795,24.8118 10.33826,-4.218 30.60122,-8.93224 47.39053,-8.93224 22.66145,0 38.78912,8.68413 14.96979,39.03717 70.21739,-45.98448 68.23245,-65.99933 38.87182,-65.99933"
   id="path6-0"
   inkscape:connector-curvature="0"
   style="fill:#000000;fill-opacity:1;stroke-width:0.82705992"
   inkscape:export-filename="C:\Users\suitedoalex\Desktop\temp\mclaren-logo-4.png"
   inkscape:export-xdpi="114.65781"
   inkscape:export-ydpi="114.65781" /></svg>